<?xml version="1.0" standalone="no"?>
<!DOCTYPE svg PUBLIC "-//W3C//DTD SVG 20010904//EN"
 "http://www.w3.org/TR/2001/REC-SVG-20010904/DTD/svg10.dtd">
<svg version="1.0" xmlns="http://www.w3.org/2000/svg"
 width="201.000000pt" height="248.000000pt" viewBox="0 0 201.000000 248.000000"
 preserveAspectRatio="xMidYMid meet">

<g transform="translate(0.000000,248.000000) scale(0.100000,-0.100000)"
fill="#000000" stroke="none">
<path d="M273 2411 c-77 -26 -136 -80 -175 -159 l-33 -67 0 -750 c0 -847 -4
-803 78 -893 68 -73 116 -95 220 -100 68 -4 91 -1 98 9 5 8 9 150 9 317 l0
302 80 0 80 0 0 -444 c0 -290 4 -454 11 -473 14 -38 57 -83 96 -99 42 -18 263
-20 281 -2 9 9 12 112 12 400 l0 388 383 0 c330 0 386 2 405 16 21 14 22 22
22 143 0 85 -4 131 -12 139 -9 9 -87 12 -292 12 l-279 0 59 38 c131 85 234
233 272 389 l17 73 171 0 c119 0 174 4 182 12 17 17 16 190 -2 231 -16 39 -61
82 -99 96 -16 6 -85 11 -155 11 l-127 0 -39 77 c-70 136 -186 239 -337 300
-109 44 -205 53 -554 53 -281 -1 -326 -3 -372 -19z m734 -335 c34 -15 72 -39
84 -52 l22 -24 -173 0 c-198 0 -235 -10 -280 -77 -25 -36 -25 -38 -28 -290
l-3 -254 -77 3 -77 3 -3 363 -2 363 237 -3 c238 -3 238 -3 300 -32z m183 -439
c0 -47 -114 -197 -150 -197 -6 0 -10 40 -10 105 l0 105 80 0 c59 0 80 -3 80
-13z"/>
</g>
</svg>
